<?xml version="1.0" encoding="utf-8"?>
<!-- Generator: Adobe Illustrator 21.1.0, SVG Export Plug-In . SVG Version: 6.00 Build 0)  -->
<svg version="1.1" id="Layer_1" xmlns="http://www.w3.org/2000/svg" xmlns:xlink="http://www.w3.org/1999/xlink" x="0px" y="0px"
	 viewBox="0 0 841.9 595.3" style="enable-background:new 0 0 841.9 595.3;" xml:space="preserve">
<style type="text/css">
	.st0{fill:#DC0C23;}
	.st1{fill:#009841;}
</style>
<g>
	<g>
		<path class="st0" d="M168.4,335.8c-14.8,5.1-29.8,9-45.6,9.4c-6.5,0.1-12.9-0.4-18.9-3c-8.9-3.8-12.6-10.8-10.4-20.3
			c2.4-10.4,8.5-18.7,15.3-26.6c14.1-16.4,31.4-29.1,49.7-40.5c1.5-0.9,4.5-1.6,3.2-4c-1.3-2.4-3.5-0.2-5,0.7
			c-11.1,6.9-22.4,13.5-33.1,20.9c-23.6,16.1-46.1,33.4-64.2,55.9c-4.8,5.9-9,12.3-11.3,19.7c-3.6,11.4,1,19.2,12.6,21.7
			c6,1.3,12,1.4,18,0.6c32.6-4.1,62.2-16.9,91.4-31c1.3-0.6,3.4-1.1,2.4-3.2C171.6,334.1,169.8,335.3,168.4,335.8z"/>
		<path class="st0" d="M282.1,250.8c-2.8,6.7-6.9,12.6-11.5,18.2c-0.9,1.1-1.9,2.3-0.6,3.6c1.4,1.4,2.5,0,3.4-0.9
			c5.8-5.5,11.7-10.9,17.2-16.7c7.7-8.1,14.7-16.8,18.5-27.4c4.5-12.6-0.8-21.1-14-23.2c-10.2-1.6-20.2-0.2-30.2,1.9
			c-29.6,6.3-57,18.4-83.8,32c-2.1,1.1-6.7,1.5-5,4.8c1.4,2.8,4.5-0.5,6.5-1.5c22.4-10.5,45.3-18.8,70.3-20.3c4.7-0.2,9.4,0,14,1
			C282.9,225.5,288.3,235.8,282.1,250.8z"/>
	</g>
	<g>
		<path class="st1" d="M579.2,359.8h-13.2v35.8h-4.6v-35.8h-13.1v-4.4h30.9V359.8z"/>
		<path class="st1" d="M616.5,395.6h-4.7l-8.9-24.6l-8.9,24.6h-4.7L578,365.3h4.7l9,25.7l8.8-25.7h4.7l8.9,25.7l8.9-25.7h4.7
			L616.5,395.6z"/>
		<path class="st1" d="M651.9,395.6V391c-2.4,3.3-6.1,4.9-11.1,4.9c-3.1,0-5.6-0.9-7.5-2.6c-1.9-1.7-2.8-4-2.8-6.6
			c0-2.6,1-4.7,3-6.3c2-1.6,4.8-2.3,8.3-2.4h10v-1.8c0-2.3-0.7-4-2.1-5.2c-1.4-1.2-3.4-1.8-6-1.8c-3.1,0-6.3,1.2-9.6,3.5l-1.9-3.3
			c2.1-1.4,4.1-2.5,6-3.1c1.8-0.7,4-1,6.4-1c3.7,0,6.6,0.9,8.6,2.8c2,1.8,3,4.4,3.1,7.7l0.1,20H651.9z M641.7,392
			c2.6,0,4.8-0.6,6.6-1.8c1.8-1.2,3-2.9,3.6-5v-3.6h-9.4c-5.1,0-7.7,1.6-7.7,4.9c0,1.7,0.6,3,1.9,4C637.9,391.5,639.6,392,641.7,392
			z"/>
		<path class="st1" d="M699.1,395.6h-4.7l-8.9-24.6l-8.9,24.6H672l-11.3-30.3h4.7l9,25.7l8.8-25.7h4.7l8.9,25.7l8.9-25.7h4.7
			L699.1,395.6z"/>
		<path class="st1" d="M727.5,365.2c4.8,0,8.4,1.5,10.8,4.5c2.4,3.1,3.5,7.2,3.3,12.5h-24.7c0.4,3,1.6,5.3,3.6,7
			c2,1.7,4.5,2.6,7.4,2.6c3.8,0,7-1.3,9.4-3.8l2.5,2.6c-3,3.4-7.1,5.1-12.2,5.1c-4.5,0-8.1-1.4-10.9-4.3c-2.8-2.8-4.2-6.5-4.2-11
			c0-4.5,1.4-8.2,4.2-11C719.4,366.6,723.1,365.2,727.5,365.2z M716.9,378.6h20.7c-0.2-2.9-1.1-5.2-3-6.9c-1.8-1.7-4.2-2.6-7.2-2.6
			c-2.9,0-5.3,0.9-7.2,2.6C718.4,373.4,717.2,375.7,716.9,378.6z"/>
		<path class="st1" d="M771.7,368.8l-19,23l19.4,0.1v3.9l-24.9-0.1v-3.4l19-23l-18.5-0.1v-3.9l23.9,0.1V368.8z"/>
		<path class="st1" d="M798.9,395.6V391c-2.4,3.3-6.1,4.9-11.1,4.9c-3.1,0-5.6-0.9-7.5-2.6c-1.9-1.7-2.8-4-2.8-6.6
			c0-2.6,1-4.7,3-6.3c2-1.6,4.8-2.3,8.3-2.4h10v-1.8c0-2.3-0.7-4-2.1-5.2c-1.4-1.2-3.4-1.8-6-1.8c-3.1,0-6.3,1.2-9.6,3.5l-1.9-3.3
			c2.1-1.4,4.1-2.5,6-3.1c1.8-0.7,4-1,6.4-1c3.7,0,6.6,0.9,8.6,2.8s3,4.4,3.1,7.7l0.1,20H798.9z M788.6,392c2.6,0,4.8-0.6,6.6-1.8
			c1.8-1.2,3-2.9,3.6-5v-3.6h-9.4c-5.1,0-7.7,1.6-7.7,4.9c0,1.7,0.6,3,1.9,4C784.8,391.5,786.5,392,788.6,392z"/>
	</g>
	<g>
		<g>
			<path class="st1" d="M440.3,282.3h21.5v61.3h-21.5v-7.9c-3.9,6.4-10.1,9.6-18.7,9.6c-8.3,0-15.2-3-20.5-9.1c-5.3-6-8-13.8-8-23.2
				c0-9.2,2.7-16.8,8.1-23c5.4-6.2,12.2-9.3,20.3-9.3c6.6,0,12.1,2.1,16.4,6.4l2.4,3.5V282.3z M415.1,313.2c0,4.8,1.2,8.7,3.5,11.7
				c2.3,3.1,5.4,4.6,9.2,4.6c3.7,0,6.7-1.5,9-4.6c2.3-3.1,3.5-7,3.5-11.7c0-4.6-1.2-8.5-3.7-11.6c-2.5-3.1-5.5-4.7-9.2-4.7
				c-3.5,0-6.4,1.5-8.8,4.6C416.3,304.6,415.1,308.5,415.1,313.2z"/>
		</g>
		<g>
			<path class="st1" d="M315.9,282.3h21.5v61.3h-21.5v-7.9c-3.9,6.4-10.1,9.6-18.7,9.6c-8.3,0-15.2-3-20.5-9.1c-5.3-6-8-13.8-8-23.2
				c0-9.2,2.7-16.8,8.1-23c5.4-6.2,12.2-9.3,20.3-9.3c6.6,0,12.1,2.1,16.4,6.4l2.4,3.5V282.3z M290.8,313.2c0,4.8,1.2,8.7,3.5,11.7
				c2.3,3.1,5.4,4.6,9.2,4.6c3.7,0,6.7-1.5,9-4.6c2.3-3.1,3.5-7,3.5-11.7c0-4.6-1.2-8.5-3.7-11.6c-2.5-3.1-5.5-4.7-9.2-4.7
				c-3.5,0-6.4,1.5-8.8,4.6C291.9,304.6,290.8,308.5,290.8,313.2z"/>
		</g>
		<g>
			<path class="st1" d="M520.6,281.3v19.7c-6.2-1.9-10.7-1.9-10.7-1.9c-9.4-0.7-12.9,7.9-12.9,7.9c-0.5,1.6-0.8,3.9-0.8,6.7v29.8
				H476v-61.3h20.2v10.4c1.2-3.8,3.5-6.8,6.7-8.9c3.3-2.1,7.4-3.1,12.5-3.1c1.2,0,2.3,0,3.2,0.1l1.7,0.2
				C520.5,281.1,520.6,281.2,520.6,281.3z"/>
		</g>
		<path class="st1" d="M658.5,280.7c9.7,0,17.7,3,24,9.1c6.3,6.1,9.5,13.9,9.5,23.3c0,9.5-3.2,17.3-9.5,23.3
			c-6.3,6.1-14.3,9.1-24,9.1c-9.8,0-17.8-3-24.2-9.1c-6.3-6.1-9.5-13.9-9.5-23.3c0-9.5,3.2-17.3,9.5-23.3
			C640.6,283.8,648.7,280.7,658.5,280.7z M645.6,313.2c0,5,1.2,9.1,3.6,12.4c2.4,3.2,5.4,4.9,9,4.9c3.5,0,6.5-1.6,8.9-4.9
			c2.4-3.2,3.6-7.4,3.6-12.4c0-4.9-1.2-9-3.6-12.4c-2.4-3.3-5.4-5-8.9-5c-3.6,0-6.6,1.6-9,4.9C646.8,303.9,645.6,308.1,645.6,313.2z
			"/>
		<rect x="528.2" y="282.2" class="st1" width="21.9" height="61.4"/>
		<rect x="528.2" y="251.5" class="st1" width="21.9" height="18.7"/>
		<path class="st1" d="M611,324.8c-3,3-6.9,4.6-11.5,4.6c-4.7,0-8.5-1.5-11.6-4.6c-3-3-4.5-6.9-4.5-11.7c0-4.8,1.5-8.7,4.5-11.7
			c3-3,6.9-4.6,11.6-4.6c4.6,0,8.5,1.5,11.5,4.6c0.8,0.8,1.4,1.6,2,2.4l6.2-15.6c-6.3-5-14-7.5-23.2-7.5c-10.2,0-18.6,3-25.2,9.1
			c-6.6,6.1-9.9,13.9-9.9,23.3s3.3,17.3,9.9,23.3c6.6,6.1,15,9.1,25.2,9.1c9.5,0,17.4-2.7,23.8-8l-6.5-15.8
			C612.6,322.9,611.9,323.9,611,324.8z"/>
		<path class="st1" d="M702.4,343.6V283h19.8l1.4,7.4c0,0,5.9-10.3,19.3-9.7c0,0,11.8,0,18.4,10.4c5.2-6.2,13-10.4,21-10.4
			c7.5,0,12.3,2,15.3,5.1c3.3,3.2,4.4,6,4.7,8c0.3,2,0.7,5.5,0.7,10.7v39.2h-21.6v-34.9v-5.4c-0.4-7.1-7.7-6.8-7.7-6.8
			c-4.7,0.1-7.1,3-8.4,5.7c-0.9,1.9-1.3,4.1-1.3,6.2v2v33.3h-2.3h-19.3v-34.9v-5.4c-0.4-7.1-7.7-6.8-7.7-6.8c-4.7,0.1-7.1,3-8.4,5.7
			c-0.9,1.9-1.3,4.1-1.3,6.2v2v33.3H702.4z"/>
		<path class="st1" d="M383.5,270.5c0,0,3.3,0,5.6,1.6v-16.7c0,0-7-1.9-14.9-1.9c-10.9,0.8-16.5,6.4-19.4,11.5
			c-2,3.5-2.9,7.6-2.9,11.6v67h22.3v-45.1h11.9v-16.4h-11.9v-4C374.3,278.2,374.8,270.3,383.5,270.5z"/>
		<path class="st1" d="M223.9,310.5c4.8,1.3,14.5,4.1,13.7,10.2c0,0,0.3,9.6-21.7,7c0,0-15.8-2.9-21.3-8.4l-6.8,16.8
			c0,0,17.8,14.3,48.6,7.5c0,0,25.4-6,23.2-26.7c0,0,1.5-18.7-26.7-23.9c-1.2-0.2-2.4-0.5-3.6-0.8l-1.8-0.5c-1-0.3-1.9-0.5-2.9-0.7
			c-3.7-0.8-14.9-3.7-14-10.5c0,0-0.3-9.6,20.1-7c0,0,14.6,2.9,19.8,8.4l6.3-16.8c0,0-16.5-14.3-45.2-7.5c0,0-23.6,6-21.6,26.7
			c0,0-1.5,18.6,24.3,23.9c1.1,0.2,2.3,0.5,3.4,0.7C219.5,309.4,222.1,310,223.9,310.5z"/>
	</g>
</g>
<g>
</g>
<g>
</g>
<g>
</g>
<g>
</g>
<g>
</g>
<g>
</g>
</svg>
